<svg width="13" height="12" viewBox="0 0 13 12" fill="none" xmlns="http://www.w3.org/2000/svg">
<g id="icomoon-free:hour-glass">
<path id="Vector" d="M9.04273 6C10.6567 4.97625 11.7502 3.009 11.7502 0.75C11.7502 0.49575 11.736 0.246 11.7097 0H1.29148C1.2643 0.249074 1.25078 0.499448 1.25098 0.75C1.25098 3.009 2.34373 4.97625 3.95773 6C2.34373 7.02375 1.25098 8.991 1.25098 11.25C1.25098 11.5042 1.26523 11.754 1.29148 12H11.7097C11.7367 11.754 11.7502 11.5042 11.7502 11.25C11.7502 8.991 10.6567 7.02375 9.04273 6ZM2.37523 11.25C2.37523 9.05925 3.31498 7.20225 5.00023 6.5895V5.4105C3.31498 4.79775 2.37523 2.94 2.37523 0.75H10.6252C10.6252 2.94075 9.68548 4.79775 8.00023 5.4105V6.5895C9.68548 7.20225 10.6252 9.06 10.6252 11.25H2.37523ZM7.76173 7.8465C6.92173 7.37025 6.87598 6.75225 6.87523 6.37725V5.62425C6.87523 5.24925 6.91948 4.629 7.76323 4.152C8.21473 3.89025 8.60473 3.492 8.90023 2.99925H4.10023C4.39648 3.492 4.78723 3.89025 5.23873 4.15275C6.07873 4.629 6.12448 5.247 6.12523 5.622V6.375C6.12523 6.75 6.08098 7.37025 5.23723 7.84725C4.38598 8.3415 3.75223 9.32025 3.56023 10.5H9.43948C9.24748 9.3195 8.61298 8.34075 7.76098 7.8465H7.76173Z" fill="#E6E9EB"/>
</g>
</svg>
